<svg xmlns="http://www.w3.org/2000/svg" xmlns:xlink="http://www.w3.org/1999/xlink" width="559" zoomAndPan="magnify" viewBox="0 0 419.25 297.749991" height="397" preserveAspectRatio="xMidYMid meet" version="1.0"><defs><g/><clipPath id="9426047419"><path d="M 17 16 L 96 16 L 96 95 L 17 95 Z M 17 16 " clip-rule="nonzero"/></clipPath><clipPath id="0104144d43"><path d="M 51.746094 0.164062 L 111.832031 50.769531 L 61.226562 110.855469 L 1.140625 60.25 Z M 51.746094 0.164062 " clip-rule="nonzero"/></clipPath><clipPath id="7eba7966b1"><path d="M 51.746094 0.164062 L 111.832031 50.769531 L 61.226562 110.855469 L 1.140625 60.25 Z M 51.746094 0.164062 " clip-rule="nonzero"/></clipPath><clipPath id="6d08cf2e6f"><path d="M 28 34 L 78 34 L 78 86 L 28 86 Z M 28 34 " clip-rule="nonzero"/></clipPath><clipPath id="7de00d649e"><path d="M 51.746094 0.164062 L 111.832031 50.769531 L 61.226562 110.855469 L 1.140625 60.25 Z M 51.746094 0.164062 " clip-rule="nonzero"/></clipPath><clipPath id="10dccaa81a"><path d="M 51.746094 0.164062 L 111.832031 50.769531 L 61.226562 110.855469 L 1.140625 60.25 Z M 51.746094 0.164062 " clip-rule="nonzero"/></clipPath><clipPath id="f84fe51366"><path d="M 39 57 L 65 57 L 65 65 L 39 65 Z M 39 57 " clip-rule="nonzero"/></clipPath><clipPath id="1f10845ce1"><path d="M 51.746094 0.164062 L 111.832031 50.769531 L 61.226562 110.855469 L 1.140625 60.25 Z M 51.746094 0.164062 " clip-rule="nonzero"/></clipPath><clipPath id="902e375b74"><path d="M 51.746094 0.164062 L 111.832031 50.769531 L 61.226562 110.855469 L 1.140625 60.25 Z M 51.746094 0.164062 " clip-rule="nonzero"/></clipPath><clipPath id="1c6b959a90"><path d="M 50 47 L 60 47 L 60 57 L 50 57 Z M 50 47 " clip-rule="nonzero"/></clipPath><clipPath id="d488515ccc"><path d="M 51.746094 0.164062 L 111.832031 50.769531 L 61.226562 110.855469 L 1.140625 60.25 Z M 51.746094 0.164062 " clip-rule="nonzero"/></clipPath><clipPath id="1fbc01678e"><path d="M 51.746094 0.164062 L 111.832031 50.769531 L 61.226562 110.855469 L 1.140625 60.25 Z M 51.746094 0.164062 " clip-rule="nonzero"/></clipPath><clipPath id="848118e8bc"><path d="M 44 65 L 54 65 L 54 75 L 44 75 Z M 44 65 " clip-rule="nonzero"/></clipPath><clipPath id="18f929958f"><path d="M 51.746094 0.164062 L 111.832031 50.769531 L 61.226562 110.855469 L 1.140625 60.25 Z M 51.746094 0.164062 " clip-rule="nonzero"/></clipPath><clipPath id="167bd2c1c8"><path d="M 51.746094 0.164062 L 111.832031 50.769531 L 61.226562 110.855469 L 1.140625 60.25 Z M 51.746094 0.164062 " clip-rule="nonzero"/></clipPath><clipPath id="b4d25e54be"><path d="M 65 40 L 69 40 L 69 45 L 65 45 Z M 65 40 " clip-rule="nonzero"/></clipPath><clipPath id="53e2ecfd48"><path d="M 51.746094 0.164062 L 111.832031 50.769531 L 61.226562 110.855469 L 1.140625 60.25 Z M 51.746094 0.164062 " clip-rule="nonzero"/></clipPath><clipPath id="61aee30d00"><path d="M 51.746094 0.164062 L 111.832031 50.769531 L 61.226562 110.855469 L 1.140625 60.25 Z M 51.746094 0.164062 " clip-rule="nonzero"/></clipPath><clipPath id="2210c5380c"><path d="M 109 8 L 371.53125 8 L 371.53125 102 L 109 102 Z M 109 8 " clip-rule="nonzero"/></clipPath><clipPath id="a599dbdd1b"><rect x="0" width="263" y="0" height="94"/></clipPath><clipPath id="dff66adff8"><rect x="0" width="372" y="0" height="112"/></clipPath></defs><g transform="matrix(1, 0, 0, 1, 24, 93)"><g clip-path="url(#dff66adff8)"><g clip-path="url(#9426047419)"><g clip-path="url(#0104144d43)"><g clip-path="url(#7eba7966b1)"><path fill="#6bffb8" d="M 86.589844 80.96875 C 85.757812 81.953125 84.882812 82.898438 83.960938 83.796875 C 83.035156 84.695312 82.070312 85.546875 81.066406 86.351562 C 80.058594 87.15625 79.015625 87.910156 77.933594 88.613281 C 76.855469 89.316406 75.742188 89.964844 74.597656 90.554688 C 73.453125 91.148438 72.285156 91.683594 71.085938 92.164062 C 69.890625 92.640625 68.671875 93.058594 67.433594 93.417969 C 66.199219 93.773438 64.945312 94.070312 63.679688 94.308594 C 62.410156 94.542969 61.136719 94.714844 59.851562 94.824219 C 58.566406 94.933594 57.28125 94.980469 55.992188 94.964844 C 54.707031 94.949219 53.421875 94.871094 52.140625 94.726562 C 50.859375 94.582031 49.589844 94.378906 48.328125 94.113281 C 47.066406 93.84375 45.824219 93.515625 44.59375 93.125 C 43.367188 92.734375 42.160156 92.285156 40.976562 91.777344 C 39.792969 91.269531 38.636719 90.707031 37.507812 90.082031 C 36.378906 89.460938 35.285156 88.785156 34.222656 88.054688 C 33.160156 87.328125 32.136719 86.546875 31.148438 85.714844 C 30.164062 84.886719 29.222656 84.011719 28.320312 83.085938 C 27.421875 82.164062 26.570312 81.199219 25.765625 80.195312 C 24.960938 79.1875 24.207031 78.144531 23.503906 77.0625 C 22.804688 75.984375 22.15625 74.871094 21.5625 73.726562 C 20.96875 72.582031 20.433594 71.410156 19.957031 70.214844 C 19.476562 69.019531 19.058594 67.800781 18.703125 66.5625 C 18.34375 65.324219 18.046875 64.074219 17.8125 62.804688 C 17.578125 61.539062 17.402344 60.265625 17.292969 58.980469 C 17.183594 57.695312 17.136719 56.410156 17.152344 55.121094 C 17.167969 53.832031 17.25 52.546875 17.390625 51.269531 C 17.535156 49.988281 17.738281 48.714844 18.007812 47.457031 C 18.273438 46.195312 18.601562 44.953125 18.992188 43.722656 C 19.382812 42.496094 19.832031 41.289062 20.339844 40.105469 C 20.847656 38.921875 21.414062 37.765625 22.035156 36.636719 C 22.65625 35.507812 23.332031 34.410156 24.0625 33.347656 C 24.792969 32.285156 25.570312 31.261719 26.402344 30.277344 C 27.230469 29.292969 28.109375 28.347656 29.03125 27.449219 C 29.953125 26.550781 30.917969 25.699219 31.925781 24.894531 C 32.929688 24.089844 33.976562 23.335938 35.054688 22.632812 C 36.136719 21.929688 37.25 21.285156 38.390625 20.691406 C 39.535156 20.097656 40.707031 19.5625 41.902344 19.085938 C 43.101562 18.605469 44.316406 18.1875 45.554688 17.828125 C 46.792969 17.472656 48.046875 17.175781 49.3125 16.941406 C 50.578125 16.703125 51.855469 16.53125 53.136719 16.421875 C 54.421875 16.3125 55.707031 16.265625 56.996094 16.28125 C 58.285156 16.296875 59.570312 16.378906 60.851562 16.519531 C 62.132812 16.664062 63.402344 16.867188 64.664062 17.136719 C 65.921875 17.402344 67.167969 17.730469 68.394531 18.121094 C 69.625 18.511719 70.832031 18.960938 72.015625 19.46875 C 73.199219 19.976562 74.355469 20.542969 75.484375 21.164062 C 76.613281 21.785156 77.707031 22.460938 78.769531 23.191406 C 79.832031 23.921875 80.855469 24.699219 81.839844 25.53125 C 82.828125 26.359375 83.769531 27.238281 84.667969 28.160156 C 85.570312 29.082031 86.421875 30.046875 87.226562 31.054688 C 88.03125 32.058594 88.785156 33.101562 89.484375 34.183594 C 90.1875 35.265625 90.835938 36.375 91.429688 37.519531 C 92.019531 38.664062 92.554688 39.835938 93.035156 41.03125 C 93.511719 42.226562 93.929688 43.445312 94.289062 44.683594 C 94.648438 45.921875 94.945312 47.171875 95.179688 48.441406 C 95.414062 49.707031 95.585938 50.984375 95.695312 52.265625 C 95.808594 53.550781 95.855469 54.835938 95.835938 56.125 C 95.820312 57.414062 95.742188 58.699219 95.597656 59.980469 C 95.457031 61.257812 95.25 62.53125 94.984375 63.789062 C 94.714844 65.050781 94.386719 66.296875 93.996094 67.523438 C 93.609375 68.753906 93.160156 69.957031 92.652344 71.140625 C 92.140625 72.328125 91.578125 73.484375 90.957031 74.613281 C 90.332031 75.738281 89.65625 76.835938 88.929688 77.898438 C 88.199219 78.960938 87.417969 79.984375 86.589844 80.96875 Z M 86.589844 80.96875 " fill-opacity="1" fill-rule="nonzero"/></g></g></g><g clip-path="url(#6d08cf2e6f)"><g clip-path="url(#7de00d649e)"><g clip-path="url(#10dccaa81a)"><path fill="#272626" d="M 71.222656 34.878906 Z M 72.8125 36.238281 C 72.390625 35.882812 71.839844 35.675781 71.25 35.695312 C 71.246094 35.695312 71.246094 35.695312 71.246094 35.695312 L 54.347656 36.199219 C 53.6875 36.21875 53.066406 36.519531 52.640625 37.027344 L 30.285156 63.640625 C 29.457031 64.621094 29.589844 66.089844 30.574219 66.917969 L 49.773438 83.089844 C 50.75 83.914062 52.222656 83.789062 53.054688 82.8125 L 75.476562 56.257812 C 75.910156 55.75 76.101562 55.085938 76.003906 54.441406 L 73.617188 37.691406 C 73.53125 37.105469 73.234375 36.597656 72.8125 36.238281 Z M 48.71875 84.339844 L 29.519531 68.167969 C 27.847656 66.757812 27.628906 64.257812 29.035156 62.585938 L 51.390625 35.972656 C 52.113281 35.113281 53.171875 34.601562 54.296875 34.566406 L 71.199219 34.0625 C 73.214844 34 74.949219 35.460938 75.234375 37.460938 L 77.621094 54.207031 C 77.785156 55.308594 77.460938 56.445312 76.726562 57.3125 L 54.300781 83.871094 C 52.882812 85.53125 50.378906 85.738281 48.71875 84.339844 Z M 48.71875 84.339844 " fill-opacity="1" fill-rule="evenodd"/></g></g></g><g clip-path="url(#f84fe51366)"><g clip-path="url(#1f10845ce1)"><g clip-path="url(#902e375b74)"><path fill="#272626" d="M 39.886719 63.949219 C 39.753906 63.835938 39.652344 63.679688 39.613281 63.5 C 39.515625 63.058594 39.792969 62.621094 40.234375 62.523438 L 63.796875 57.328125 C 64.238281 57.230469 64.671875 57.507812 64.769531 57.949219 C 64.867188 58.390625 64.589844 58.824219 64.148438 58.921875 L 40.585938 64.121094 C 40.328125 64.175781 40.074219 64.105469 39.886719 63.949219 Z M 39.886719 63.949219 " fill-opacity="1" fill-rule="evenodd"/></g></g></g><g clip-path="url(#1c6b959a90)"><g clip-path="url(#d488515ccc)"><g clip-path="url(#1fbc01678e)"><path fill="#272626" d="M 56.859375 49.5 C 55.621094 48.457031 53.765625 48.613281 52.722656 49.851562 C 51.679688 51.089844 51.835938 52.945312 53.074219 53.988281 C 54.3125 55.03125 56.167969 54.875 57.210938 53.636719 C 58.253906 52.398438 58.097656 50.542969 56.859375 49.5 Z M 52.023438 55.242188 C 50.09375 53.617188 49.847656 50.726562 51.472656 48.800781 C 53.09375 46.871094 55.984375 46.625 57.910156 48.25 C 59.839844 49.871094 60.085938 52.761719 58.460938 54.6875 C 56.839844 56.617188 53.949219 56.863281 52.023438 55.242188 Z M 52.023438 55.242188 " fill-opacity="1" fill-rule="evenodd"/></g></g></g><g clip-path="url(#848118e8bc)"><g clip-path="url(#18f929958f)"><g clip-path="url(#167bd2c1c8)"><path fill="#272626" d="M 51.308594 67.457031 C 50.070312 66.414062 48.214844 66.574219 47.171875 67.8125 C 46.128906 69.050781 46.289062 70.90625 47.527344 71.949219 C 48.765625 72.992188 50.621094 72.832031 51.664062 71.59375 C 52.707031 70.355469 52.546875 68.5 51.308594 67.457031 Z M 46.472656 73.199219 C 44.546875 71.574219 44.296875 68.6875 45.921875 66.757812 C 47.546875 64.832031 50.433594 64.585938 52.363281 66.207031 C 54.289062 67.832031 54.539062 70.71875 52.914062 72.648438 C 51.289062 74.574219 48.402344 74.824219 46.472656 73.199219 Z M 46.472656 73.199219 " fill-opacity="1" fill-rule="evenodd"/></g></g></g><g clip-path="url(#b4d25e54be)"><g clip-path="url(#53e2ecfd48)"><g clip-path="url(#61aee30d00)"><path fill="#272626" d="M 66.027344 44.03125 C 65.683594 43.742188 65.636719 43.226562 65.929688 42.878906 L 67.320312 41.226562 C 67.613281 40.882812 68.128906 40.835938 68.472656 41.128906 C 68.820312 41.417969 68.863281 41.933594 68.570312 42.28125 L 67.179688 43.933594 C 66.886719 44.277344 66.371094 44.324219 66.027344 44.03125 Z M 66.027344 44.03125 " fill-opacity="1" fill-rule="evenodd"/></g></g></g><g clip-path="url(#2210c5380c)"><g transform="matrix(1, 0, 0, 1, 109, 8)"><g clip-path="url(#a599dbdd1b)"><g fill="#ffffff" fill-opacity="1"><g transform="translate(0.901826, 69.506915)"><g><path d="M 32.109375 -23.734375 C 34.785156 -23.160156 36.9375 -21.828125 38.5625 -19.734375 C 40.1875 -17.648438 41 -15.269531 41 -12.59375 C 41 -8.726562 39.644531 -5.660156 36.9375 -3.390625 C 34.238281 -1.128906 30.472656 0 25.640625 0 L 4.09375 0 L 4.09375 -46.28125 L 24.921875 -46.28125 C 29.617188 -46.28125 33.296875 -45.203125 35.953125 -43.046875 C 38.617188 -40.890625 39.953125 -37.96875 39.953125 -34.28125 C 39.953125 -31.550781 39.234375 -29.285156 37.796875 -27.484375 C 36.367188 -25.679688 34.472656 -24.429688 32.109375 -23.734375 Z M 15.359375 -27.5625 L 22.75 -27.5625 C 24.59375 -27.5625 26.007812 -27.96875 27 -28.78125 C 27.988281 -29.59375 28.484375 -30.789062 28.484375 -32.375 C 28.484375 -33.945312 27.988281 -35.148438 27 -35.984375 C 26.007812 -36.828125 24.59375 -37.25 22.75 -37.25 L 15.359375 -37.25 Z M 23.671875 -9.09375 C 25.554688 -9.09375 27.015625 -9.519531 28.046875 -10.375 C 29.078125 -11.238281 29.59375 -12.484375 29.59375 -14.109375 C 29.59375 -15.734375 29.054688 -17.003906 27.984375 -17.921875 C 26.910156 -18.847656 25.425781 -19.3125 23.53125 -19.3125 L 15.359375 -19.3125 L 15.359375 -9.09375 Z M 23.671875 -9.09375 "/></g></g></g><g fill="#ffffff" fill-opacity="1"><g transform="translate(40.252427, 69.506915)"><g><path d="M 32.890625 -8.171875 L 15.625 -8.171875 L 12.859375 0 L 1.0625 0 L 17.796875 -46.28125 L 30.84375 -46.28125 L 47.59375 0 L 35.65625 0 Z M 30 -16.875 L 24.265625 -33.8125 L 18.59375 -16.875 Z M 30 -16.875 "/></g></g></g><g fill="#ffffff" fill-opacity="1"><g transform="translate(84.744453, 69.506915)"><g><path d="M 27.6875 0 L 18.0625 -17.46875 L 15.359375 -17.46875 L 15.359375 0 L 4.09375 0 L 4.09375 -46.28125 L 23 -46.28125 C 26.65625 -46.28125 29.765625 -45.640625 32.328125 -44.359375 C 34.898438 -43.085938 36.820312 -41.34375 38.09375 -39.125 C 39.375 -36.90625 40.015625 -34.429688 40.015625 -31.703125 C 40.015625 -28.628906 39.144531 -25.882812 37.40625 -23.46875 C 35.675781 -21.050781 33.117188 -19.335938 29.734375 -18.328125 L 40.40625 0 Z M 15.359375 -25.453125 L 22.34375 -25.453125 C 24.414062 -25.453125 25.96875 -25.957031 27 -26.96875 C 28.03125 -27.976562 28.546875 -29.40625 28.546875 -31.25 C 28.546875 -33.007812 28.03125 -34.394531 27 -35.40625 C 25.96875 -36.414062 24.414062 -36.921875 22.34375 -36.921875 L 15.359375 -36.921875 Z M 15.359375 -25.453125 "/></g></g></g><g fill="#ffffff" fill-opacity="1"><g transform="translate(123.633643, 69.506915)"><g><path d="M 34.8125 -31.640625 C 33.96875 -33.179688 32.765625 -34.359375 31.203125 -35.171875 C 29.648438 -35.984375 27.816406 -36.390625 25.703125 -36.390625 C 22.054688 -36.390625 19.132812 -35.191406 16.9375 -32.796875 C 14.738281 -30.398438 13.640625 -27.203125 13.640625 -23.203125 C 13.640625 -18.941406 14.789062 -15.613281 17.09375 -13.21875 C 19.40625 -10.820312 22.582031 -9.625 26.625 -9.625 C 29.394531 -9.625 31.734375 -10.328125 33.640625 -11.734375 C 35.554688 -13.140625 36.957031 -15.160156 37.84375 -17.796875 L 23.53125 -17.796875 L 23.53125 -26.109375 L 48.0625 -26.109375 L 48.0625 -15.625 C 47.21875 -12.8125 45.796875 -10.195312 43.796875 -7.78125 C 41.804688 -5.363281 39.269531 -3.40625 36.1875 -1.90625 C 33.113281 -0.414062 29.644531 0.328125 25.78125 0.328125 C 21.207031 0.328125 17.128906 -0.671875 13.546875 -2.671875 C 9.960938 -4.671875 7.171875 -7.445312 5.171875 -11 C 3.171875 -14.5625 2.171875 -18.628906 2.171875 -23.203125 C 2.171875 -27.773438 3.171875 -31.851562 5.171875 -35.4375 C 7.171875 -39.019531 9.953125 -41.804688 13.515625 -43.796875 C 17.078125 -45.796875 21.140625 -46.796875 25.703125 -46.796875 C 31.242188 -46.796875 35.914062 -45.457031 39.71875 -42.78125 C 43.519531 -40.101562 46.035156 -36.390625 47.265625 -31.640625 Z M 34.8125 -31.640625 "/></g></g></g><g fill="#ffffff" fill-opacity="1"><g transform="translate(169.773562, 69.506915)"><g><path d="M 32.890625 -8.171875 L 15.625 -8.171875 L 12.859375 0 L 1.0625 0 L 17.796875 -46.28125 L 30.84375 -46.28125 L 47.59375 0 L 35.65625 0 Z M 30 -16.875 L 24.265625 -33.8125 L 18.59375 -16.875 Z M 30 -16.875 "/></g></g></g><g fill="#ffffff" fill-opacity="1"><g transform="translate(214.265589, 69.506915)"><g><path d="M 44.171875 -46.28125 L 44.171875 0 L 32.890625 0 L 32.890625 -19.046875 L 15.359375 -19.046875 L 15.359375 0 L 4.09375 0 L 4.09375 -46.28125 L 15.359375 -46.28125 L 15.359375 -28.15625 L 32.890625 -28.15625 L 32.890625 -46.28125 Z M 44.171875 -46.28125 "/></g></g></g></g></g></g></g></g></svg>